<mxfile host="app.diagrams.net" modified="2024-05-20T04:55:49.064Z" agent="Mozilla/5.0 (Windows NT 10.0; Win64; x64) AppleWebKit/537.36 (KHTML, like Gecko) Chrome/124.0.0.0 Safari/537.36" etag="5NDYSBzHTeeSY-iBZb-e" version="24.4.4" type="github" pages="2">
  <diagram name="Page-1" id="t3eCSwud4e4TgrzSVte0">
    <mxGraphModel dx="780" dy="433" grid="1" gridSize="10" guides="1" tooltips="1" connect="1" arrows="1" fold="1" page="1" pageScale="1" pageWidth="850" pageHeight="1100" math="0" shadow="0">
      <root>
        <mxCell id="0" />
        <mxCell id="1" parent="0" />
        <mxCell id="o4KUA2V1EvotBa9ctoQ6-1" value="IU_Principal" style="shape=umlLifeline;perimeter=lifelinePerimeter;whiteSpace=wrap;html=1;container=1;dropTarget=0;collapsible=0;recursiveResize=0;outlineConnect=0;portConstraint=eastwest;newEdgeStyle={&quot;curved&quot;:0,&quot;rounded&quot;:0};" vertex="1" parent="1">
          <mxGeometry x="170" y="120" width="100" height="840" as="geometry" />
        </mxCell>
        <mxCell id="D_JD7jL3TGWgRk3IjNof-4" value="" style="html=1;points=[[0,0,0,0,5],[0,1,0,0,-5],[1,0,0,0,5],[1,1,0,0,-5]];perimeter=orthogonalPerimeter;outlineConnect=0;targetShapes=umlLifeline;portConstraint=eastwest;newEdgeStyle={&quot;curved&quot;:0,&quot;rounded&quot;:0};" vertex="1" parent="o4KUA2V1EvotBa9ctoQ6-1">
          <mxGeometry x="45" y="70" width="10" height="80" as="geometry" />
        </mxCell>
        <mxCell id="o4KUA2V1EvotBa9ctoQ6-2" value="IU_GestorMuro" style="shape=umlLifeline;perimeter=lifelinePerimeter;whiteSpace=wrap;html=1;container=1;dropTarget=0;collapsible=0;recursiveResize=0;outlineConnect=0;portConstraint=eastwest;newEdgeStyle={&quot;curved&quot;:0,&quot;rounded&quot;:0};" vertex="1" parent="1">
          <mxGeometry x="400" y="120" width="100" height="840" as="geometry" />
        </mxCell>
        <mxCell id="D_JD7jL3TGWgRk3IjNof-8" value="" style="html=1;points=[[0,0,0,0,5],[0,1,0,0,-5],[1,0,0,0,5],[1,1,0,0,-5]];perimeter=orthogonalPerimeter;outlineConnect=0;targetShapes=umlLifeline;portConstraint=eastwest;newEdgeStyle={&quot;curved&quot;:0,&quot;rounded&quot;:0};" vertex="1" parent="o4KUA2V1EvotBa9ctoQ6-2">
          <mxGeometry x="45" y="130" width="10" height="160" as="geometry" />
        </mxCell>
        <mxCell id="o4KUA2V1EvotBa9ctoQ6-3" value="&lt;font style=&quot;font-size: 9px;&quot;&gt;Controlador_Principal&lt;/font&gt;" style="shape=umlLifeline;perimeter=lifelinePerimeter;whiteSpace=wrap;html=1;container=1;dropTarget=0;collapsible=0;recursiveResize=0;outlineConnect=0;portConstraint=eastwest;newEdgeStyle={&quot;curved&quot;:0,&quot;rounded&quot;:0};" vertex="1" parent="1">
          <mxGeometry x="285" y="120" width="100" height="840" as="geometry" />
        </mxCell>
        <mxCell id="D_JD7jL3TGWgRk3IjNof-5" value="" style="html=1;points=[[0,0,0,0,5],[0,1,0,0,-5],[1,0,0,0,5],[1,1,0,0,-5]];perimeter=orthogonalPerimeter;outlineConnect=0;targetShapes=umlLifeline;portConstraint=eastwest;newEdgeStyle={&quot;curved&quot;:0,&quot;rounded&quot;:0};" vertex="1" parent="o4KUA2V1EvotBa9ctoQ6-3">
          <mxGeometry x="45" y="100" width="10" height="60" as="geometry" />
        </mxCell>
        <mxCell id="o4KUA2V1EvotBa9ctoQ6-4" value="&lt;font style=&quot;font-size: 8px;&quot;&gt;Controlador_GestorMuro&lt;/font&gt;" style="shape=umlLifeline;perimeter=lifelinePerimeter;whiteSpace=wrap;html=1;container=1;dropTarget=0;collapsible=0;recursiveResize=0;outlineConnect=0;portConstraint=eastwest;newEdgeStyle={&quot;curved&quot;:0,&quot;rounded&quot;:0};" vertex="1" parent="1">
          <mxGeometry x="510" y="120" width="100" height="840" as="geometry" />
        </mxCell>
        <mxCell id="D_JD7jL3TGWgRk3IjNof-15" value="" style="html=1;points=[[0,0,0,0,5],[0,1,0,0,-5],[1,0,0,0,5],[1,1,0,0,-5]];perimeter=orthogonalPerimeter;outlineConnect=0;targetShapes=umlLifeline;portConstraint=eastwest;newEdgeStyle={&quot;curved&quot;:0,&quot;rounded&quot;:0};" vertex="1" parent="o4KUA2V1EvotBa9ctoQ6-4">
          <mxGeometry x="45" y="190" width="10" height="80" as="geometry" />
        </mxCell>
        <mxCell id="o4KUA2V1EvotBa9ctoQ6-6" value="GestorMuro" style="shape=umlLifeline;perimeter=lifelinePerimeter;whiteSpace=wrap;html=1;container=1;dropTarget=0;collapsible=0;recursiveResize=0;outlineConnect=0;portConstraint=eastwest;newEdgeStyle={&quot;curved&quot;:0,&quot;rounded&quot;:0};" vertex="1" parent="1">
          <mxGeometry x="630" y="120" width="100" height="840" as="geometry" />
        </mxCell>
        <mxCell id="D_JD7jL3TGWgRk3IjNof-17" value="" style="html=1;points=[[0,0,0,0,5],[0,1,0,0,-5],[1,0,0,0,5],[1,1,0,0,-5]];perimeter=orthogonalPerimeter;outlineConnect=0;targetShapes=umlLifeline;portConstraint=eastwest;newEdgeStyle={&quot;curved&quot;:0,&quot;rounded&quot;:0};" vertex="1" parent="o4KUA2V1EvotBa9ctoQ6-6">
          <mxGeometry x="45" y="220" width="10" height="80" as="geometry" />
        </mxCell>
        <mxCell id="o4KUA2V1EvotBa9ctoQ6-7" value="Muro" style="shape=umlLifeline;perimeter=lifelinePerimeter;whiteSpace=wrap;html=1;container=1;dropTarget=0;collapsible=0;recursiveResize=0;outlineConnect=0;portConstraint=eastwest;newEdgeStyle={&quot;curved&quot;:0,&quot;rounded&quot;:0};" vertex="1" parent="1">
          <mxGeometry x="750" y="120" width="100" height="840" as="geometry" />
        </mxCell>
        <mxCell id="o4KUA2V1EvotBa9ctoQ6-8" value="Publicaion" style="shape=umlLifeline;perimeter=lifelinePerimeter;whiteSpace=wrap;html=1;container=1;dropTarget=0;collapsible=0;recursiveResize=0;outlineConnect=0;portConstraint=eastwest;newEdgeStyle={&quot;curved&quot;:0,&quot;rounded&quot;:0};" vertex="1" parent="1">
          <mxGeometry x="870" y="120" width="100" height="840" as="geometry" />
        </mxCell>
        <mxCell id="o4KUA2V1EvotBa9ctoQ6-9" value="Comentarios" style="shape=umlLifeline;perimeter=lifelinePerimeter;whiteSpace=wrap;html=1;container=1;dropTarget=0;collapsible=0;recursiveResize=0;outlineConnect=0;portConstraint=eastwest;newEdgeStyle={&quot;curved&quot;:0,&quot;rounded&quot;:0};" vertex="1" parent="1">
          <mxGeometry x="1250" y="120" width="100" height="840" as="geometry" />
        </mxCell>
        <mxCell id="o4KUA2V1EvotBa9ctoQ6-10" value="&lt;font style=&quot;font-size: 11px;&quot;&gt;Tabla_Comentarios&lt;/font&gt;" style="shape=umlLifeline;perimeter=lifelinePerimeter;whiteSpace=wrap;html=1;container=1;dropTarget=0;collapsible=0;recursiveResize=0;outlineConnect=0;portConstraint=eastwest;newEdgeStyle={&quot;curved&quot;:0,&quot;rounded&quot;:0};" vertex="1" parent="1">
          <mxGeometry x="1365" y="120" width="100" height="840" as="geometry" />
        </mxCell>
        <mxCell id="o4KUA2V1EvotBa9ctoQ6-11" value="Tabla_Publicaion" style="shape=umlLifeline;perimeter=lifelinePerimeter;whiteSpace=wrap;html=1;container=1;dropTarget=0;collapsible=0;recursiveResize=0;outlineConnect=0;portConstraint=eastwest;newEdgeStyle={&quot;curved&quot;:0,&quot;rounded&quot;:0};" vertex="1" parent="1">
          <mxGeometry x="980" y="120" width="100" height="840" as="geometry" />
        </mxCell>
        <mxCell id="o4KUA2V1EvotBa9ctoQ6-12" value="RelacionDePublicaciones" style="shape=umlLifeline;perimeter=lifelinePerimeter;whiteSpace=wrap;html=1;container=1;dropTarget=0;collapsible=0;recursiveResize=0;outlineConnect=0;portConstraint=eastwest;newEdgeStyle={&quot;curved&quot;:0,&quot;rounded&quot;:0};" vertex="1" parent="1">
          <mxGeometry x="1090" y="120" width="150" height="840" as="geometry" />
        </mxCell>
        <mxCell id="o4KUA2V1EvotBa9ctoQ6-13" value="" style="shape=umlLifeline;perimeter=lifelinePerimeter;whiteSpace=wrap;html=1;container=1;dropTarget=0;collapsible=0;recursiveResize=0;outlineConnect=0;portConstraint=eastwest;newEdgeStyle={&quot;curved&quot;:0,&quot;rounded&quot;:0};participant=umlActor;" vertex="1" parent="1">
          <mxGeometry x="100" y="110" width="20" height="850" as="geometry" />
        </mxCell>
        <mxCell id="o4KUA2V1EvotBa9ctoQ6-14" value="&lt;b&gt;&lt;font style=&quot;font-size: 20px;&quot;&gt;FUNCIONALIDAD: Gestor Muro : Realizar publicación&lt;/font&gt;&lt;/b&gt;" style="text;strokeColor=none;align=center;fillColor=none;html=1;verticalAlign=middle;whiteSpace=wrap;rounded=0;" vertex="1" parent="1">
          <mxGeometry x="150" y="60" width="590" height="30" as="geometry" />
        </mxCell>
        <mxCell id="D_JD7jL3TGWgRk3IjNof-10" value="&lt;div&gt;Ingresa el título, texto y autor de la publicación a realizar.&lt;/div&gt;" style="html=1;verticalAlign=bottom;startArrow=oval;startFill=1;endArrow=block;startSize=8;curved=0;rounded=0;" edge="1" parent="1" target="o4KUA2V1EvotBa9ctoQ6-2">
          <mxGeometry width="60" relative="1" as="geometry">
            <mxPoint x="110" y="310" as="sourcePoint" />
            <mxPoint x="170" y="310" as="targetPoint" />
          </mxGeometry>
        </mxCell>
        <mxCell id="D_JD7jL3TGWgRk3IjNof-11" value="Selecciona muro." style="html=1;verticalAlign=bottom;startArrow=oval;startFill=1;endArrow=block;startSize=8;curved=0;rounded=0;" edge="1" parent="1" target="o4KUA2V1EvotBa9ctoQ6-1">
          <mxGeometry width="60" relative="1" as="geometry">
            <mxPoint x="110" y="210" as="sourcePoint" />
            <mxPoint x="170" y="210" as="targetPoint" />
          </mxGeometry>
        </mxCell>
        <mxCell id="D_JD7jL3TGWgRk3IjNof-13" value="Solicita despliegue&amp;nbsp;&lt;div&gt;de IU_GestorMuro.&lt;/div&gt;" style="html=1;verticalAlign=bottom;endArrow=block;curved=0;rounded=0;" edge="1" parent="1" source="D_JD7jL3TGWgRk3IjNof-4" target="o4KUA2V1EvotBa9ctoQ6-3">
          <mxGeometry width="80" relative="1" as="geometry">
            <mxPoint x="230" y="230" as="sourcePoint" />
            <mxPoint x="310" y="230" as="targetPoint" />
            <Array as="points">
              <mxPoint x="270" y="230" />
            </Array>
          </mxGeometry>
        </mxCell>
        <mxCell id="D_JD7jL3TGWgRk3IjNof-14" value="Solicita despliegue&amp;nbsp;&lt;div&gt;de IU_GestorMuro.&lt;/div&gt;" style="html=1;verticalAlign=bottom;endArrow=block;curved=0;rounded=0;" edge="1" parent="1">
          <mxGeometry width="80" relative="1" as="geometry">
            <mxPoint x="340" y="270" as="sourcePoint" />
            <mxPoint x="450" y="270" as="targetPoint" />
            <Array as="points">
              <mxPoint x="385" y="270" />
            </Array>
          </mxGeometry>
        </mxCell>
        <mxCell id="D_JD7jL3TGWgRk3IjNof-16" value="Envía los datos&lt;div&gt;para realizar&amp;nbsp;&lt;/div&gt;&lt;div&gt;la publicación.&lt;/div&gt;" style="html=1;verticalAlign=bottom;endArrow=block;curved=0;rounded=0;" edge="1" parent="1" source="D_JD7jL3TGWgRk3IjNof-8" target="o4KUA2V1EvotBa9ctoQ6-4">
          <mxGeometry width="80" relative="1" as="geometry">
            <mxPoint x="460" y="330" as="sourcePoint" />
            <mxPoint x="540" y="330" as="targetPoint" />
          </mxGeometry>
        </mxCell>
        <mxCell id="D_JD7jL3TGWgRk3IjNof-18" value="Envía los datos&lt;div&gt;para realizar&amp;nbsp;&lt;/div&gt;&lt;div&gt;la publicación.&lt;/div&gt;" style="html=1;verticalAlign=bottom;endArrow=block;curved=0;rounded=0;" edge="1" parent="1" source="D_JD7jL3TGWgRk3IjNof-15">
          <mxGeometry width="80" relative="1" as="geometry">
            <mxPoint x="570" y="360" as="sourcePoint" />
            <mxPoint x="675" y="360" as="targetPoint" />
          </mxGeometry>
        </mxCell>
      </root>
    </mxGraphModel>
  </diagram>
  <diagram id="foHNPJYNj5ShI1iIxmqn" name="Page-2">
    <mxGraphModel dx="1872" dy="1040" grid="1" gridSize="10" guides="1" tooltips="1" connect="1" arrows="1" fold="1" page="1" pageScale="1" pageWidth="850" pageHeight="1100" math="0" shadow="0">
      <root>
        <mxCell id="0" />
        <mxCell id="1" parent="0" />
        <mxCell id="cGztmx226EeI62KTXeBS-1" value="IU_Principal" style="shape=umlLifeline;perimeter=lifelinePerimeter;whiteSpace=wrap;html=1;container=1;dropTarget=0;collapsible=0;recursiveResize=0;outlineConnect=0;portConstraint=eastwest;newEdgeStyle={&quot;curved&quot;:0,&quot;rounded&quot;:0};" vertex="1" parent="1">
          <mxGeometry x="170" y="120" width="100" height="840" as="geometry" />
        </mxCell>
        <mxCell id="cGztmx226EeI62KTXeBS-2" value="IU_GestorMuro" style="shape=umlLifeline;perimeter=lifelinePerimeter;whiteSpace=wrap;html=1;container=1;dropTarget=0;collapsible=0;recursiveResize=0;outlineConnect=0;portConstraint=eastwest;newEdgeStyle={&quot;curved&quot;:0,&quot;rounded&quot;:0};" vertex="1" parent="1">
          <mxGeometry x="400" y="120" width="100" height="840" as="geometry" />
        </mxCell>
        <mxCell id="cGztmx226EeI62KTXeBS-3" value="&lt;font style=&quot;font-size: 9px;&quot;&gt;Controlador_Principal&lt;/font&gt;" style="shape=umlLifeline;perimeter=lifelinePerimeter;whiteSpace=wrap;html=1;container=1;dropTarget=0;collapsible=0;recursiveResize=0;outlineConnect=0;portConstraint=eastwest;newEdgeStyle={&quot;curved&quot;:0,&quot;rounded&quot;:0};" vertex="1" parent="1">
          <mxGeometry x="285" y="120" width="100" height="840" as="geometry" />
        </mxCell>
        <mxCell id="cGztmx226EeI62KTXeBS-4" value="&lt;font style=&quot;font-size: 8px;&quot;&gt;Controlador_GestorMuro&lt;/font&gt;" style="shape=umlLifeline;perimeter=lifelinePerimeter;whiteSpace=wrap;html=1;container=1;dropTarget=0;collapsible=0;recursiveResize=0;outlineConnect=0;portConstraint=eastwest;newEdgeStyle={&quot;curved&quot;:0,&quot;rounded&quot;:0};" vertex="1" parent="1">
          <mxGeometry x="510" y="120" width="100" height="840" as="geometry" />
        </mxCell>
        <mxCell id="cGztmx226EeI62KTXeBS-5" value="IU_GestorMuro" style="shape=umlLifeline;perimeter=lifelinePerimeter;whiteSpace=wrap;html=1;container=1;dropTarget=0;collapsible=0;recursiveResize=0;outlineConnect=0;portConstraint=eastwest;newEdgeStyle={&quot;curved&quot;:0,&quot;rounded&quot;:0};" vertex="1" parent="1">
          <mxGeometry x="620" y="120" width="100" height="840" as="geometry" />
        </mxCell>
        <mxCell id="cGztmx226EeI62KTXeBS-6" value="GestorMuro" style="shape=umlLifeline;perimeter=lifelinePerimeter;whiteSpace=wrap;html=1;container=1;dropTarget=0;collapsible=0;recursiveResize=0;outlineConnect=0;portConstraint=eastwest;newEdgeStyle={&quot;curved&quot;:0,&quot;rounded&quot;:0};" vertex="1" parent="1">
          <mxGeometry x="730" y="120" width="100" height="840" as="geometry" />
        </mxCell>
        <mxCell id="cGztmx226EeI62KTXeBS-7" value="Muro" style="shape=umlLifeline;perimeter=lifelinePerimeter;whiteSpace=wrap;html=1;container=1;dropTarget=0;collapsible=0;recursiveResize=0;outlineConnect=0;portConstraint=eastwest;newEdgeStyle={&quot;curved&quot;:0,&quot;rounded&quot;:0};" vertex="1" parent="1">
          <mxGeometry x="850" y="120" width="100" height="840" as="geometry" />
        </mxCell>
        <mxCell id="cGztmx226EeI62KTXeBS-8" value="Publicaion" style="shape=umlLifeline;perimeter=lifelinePerimeter;whiteSpace=wrap;html=1;container=1;dropTarget=0;collapsible=0;recursiveResize=0;outlineConnect=0;portConstraint=eastwest;newEdgeStyle={&quot;curved&quot;:0,&quot;rounded&quot;:0};" vertex="1" parent="1">
          <mxGeometry x="970" y="120" width="100" height="840" as="geometry" />
        </mxCell>
        <mxCell id="cGztmx226EeI62KTXeBS-9" value="Comentarios" style="shape=umlLifeline;perimeter=lifelinePerimeter;whiteSpace=wrap;html=1;container=1;dropTarget=0;collapsible=0;recursiveResize=0;outlineConnect=0;portConstraint=eastwest;newEdgeStyle={&quot;curved&quot;:0,&quot;rounded&quot;:0};" vertex="1" parent="1">
          <mxGeometry x="1350" y="120" width="100" height="840" as="geometry" />
        </mxCell>
        <mxCell id="cGztmx226EeI62KTXeBS-10" value="&lt;font style=&quot;font-size: 11px;&quot;&gt;Tabla_Comentarios&lt;/font&gt;" style="shape=umlLifeline;perimeter=lifelinePerimeter;whiteSpace=wrap;html=1;container=1;dropTarget=0;collapsible=0;recursiveResize=0;outlineConnect=0;portConstraint=eastwest;newEdgeStyle={&quot;curved&quot;:0,&quot;rounded&quot;:0};" vertex="1" parent="1">
          <mxGeometry x="1465" y="120" width="100" height="840" as="geometry" />
        </mxCell>
        <mxCell id="cGztmx226EeI62KTXeBS-11" value="Tabla_Publicaion" style="shape=umlLifeline;perimeter=lifelinePerimeter;whiteSpace=wrap;html=1;container=1;dropTarget=0;collapsible=0;recursiveResize=0;outlineConnect=0;portConstraint=eastwest;newEdgeStyle={&quot;curved&quot;:0,&quot;rounded&quot;:0};" vertex="1" parent="1">
          <mxGeometry x="1080" y="120" width="100" height="840" as="geometry" />
        </mxCell>
        <mxCell id="cGztmx226EeI62KTXeBS-12" value="RelacionDePublicaciones" style="shape=umlLifeline;perimeter=lifelinePerimeter;whiteSpace=wrap;html=1;container=1;dropTarget=0;collapsible=0;recursiveResize=0;outlineConnect=0;portConstraint=eastwest;newEdgeStyle={&quot;curved&quot;:0,&quot;rounded&quot;:0};" vertex="1" parent="1">
          <mxGeometry x="1190" y="120" width="150" height="840" as="geometry" />
        </mxCell>
        <mxCell id="cGztmx226EeI62KTXeBS-13" value="" style="shape=umlLifeline;perimeter=lifelinePerimeter;whiteSpace=wrap;html=1;container=1;dropTarget=0;collapsible=0;recursiveResize=0;outlineConnect=0;portConstraint=eastwest;newEdgeStyle={&quot;curved&quot;:0,&quot;rounded&quot;:0};participant=umlActor;" vertex="1" parent="1">
          <mxGeometry x="100" y="110" width="20" height="850" as="geometry" />
        </mxCell>
        <mxCell id="cGztmx226EeI62KTXeBS-14" value="&lt;b&gt;&lt;font style=&quot;font-size: 20px;&quot;&gt;FUNCIONALIDAD: Gestor Muro : Realizar publicación&lt;/font&gt;&lt;/b&gt;" style="text;strokeColor=none;align=center;fillColor=none;html=1;verticalAlign=middle;whiteSpace=wrap;rounded=0;" vertex="1" parent="1">
          <mxGeometry x="150" y="60" width="590" height="30" as="geometry" />
        </mxCell>
      </root>
    </mxGraphModel>
  </diagram>
</mxfile>
